<svg width="503" height="239" viewBox="0 0 503 239" fill="none" xmlns="http://www.w3.org/2000/svg">
<path d="M43.1 154.9C38.9667 154.9 35.3667 154.233 32.3 152.9C29.3 151.567 26.8333 149.7 24.9 147.3C22.9667 144.9 21.5333 142.2 20.6 139.2C19.6667 136.133 19.2 132.967 19.2 129.7C19.2 126.433 19.6333 123.267 20.5 120.2C21.4333 117.067 22.8333 114.267 24.7 111.8C26.5667 109.333 28.9667 107.4 31.9 106C34.8333 104.533 38.3 103.8 42.3 103.8C46.1 103.8 49.4 104.467 52.2 105.8C55.0667 107.067 57.4333 108.867 59.3 111.2C61.1667 113.467 62.5333 116.067 63.4 119C64.3333 121.933 64.8 125.067 64.8 128.4C64.8 128.867 64.7667 129.533 64.7 130.4C64.7 131.267 64.6333 132.133 64.5 133H30.3C30.5667 136.933 31.9 139.933 34.3 142C36.7 144.067 39.7667 145.1 43.5 145.1C46.2333 145.1 48.7333 144.667 51 143.8C53.2667 142.933 55.3333 141.567 57.2 139.7L63.3 147.1C61.2333 148.967 59.1667 150.467 57.1 151.6C55.0333 152.733 52.8667 153.567 50.6 154.1C48.4 154.633 45.9 154.9 43.1 154.9ZM53.9 127.4C54.0333 126.867 54.1 126.333 54.1 125.8C54.1667 125.267 54.2 124.733 54.2 124.2C54.2 122.733 53.9333 121.333 53.4 120C52.9333 118.667 52.2 117.5 51.2 116.5C50.2 115.433 48.9667 114.6 47.5 114C46.0333 113.333 44.3667 113 42.5 113C39.9 113 37.7 113.567 35.9 114.7C34.1667 115.833 32.8 117.3 31.8 119.1C30.8667 120.833 30.3 122.733 30.1 124.8H57.5L53.9 127.4ZM93.8016 154.9C89.4016 154.9 85.5682 153.8 82.3016 151.6C79.1016 149.333 76.6349 146.267 74.9016 142.4C73.1682 138.533 72.3016 134.167 72.3016 129.3C72.3016 123.967 73.2349 119.4 75.1016 115.6C77.0349 111.8 79.6349 108.9 82.9016 106.9C86.1682 104.833 89.8016 103.8 93.8016 103.8C96.6016 103.8 99.1682 104.367 101.502 105.5C103.902 106.633 105.902 108.3 107.502 110.5C109.168 112.633 110.335 115.267 111.002 118.4L108.402 118.5V84.3H119.502V154H108.402V140.3L111.402 139.6C110.535 143.2 109.202 146.133 107.402 148.4C105.668 150.6 103.635 152.233 101.302 153.3C98.9682 154.367 96.4682 154.9 93.8016 154.9ZM96.5016 144.7C99.1016 144.7 101.368 144.067 103.302 142.8C105.235 141.533 106.735 139.733 107.802 137.4C108.868 135.067 109.402 132.367 109.402 129.3C109.402 126.233 108.868 123.567 107.802 121.3C106.735 118.967 105.235 117.167 103.302 115.9C101.368 114.567 99.1016 113.9 96.5016 113.9C93.9016 113.9 91.6016 114.533 89.6016 115.8C87.6682 117.067 86.1349 118.867 85.0016 121.2C83.9349 123.533 83.4016 126.233 83.4016 129.3C83.4016 132.367 83.9349 135.067 85.0016 137.4C86.1349 139.733 87.6682 141.533 89.6016 142.8C91.6016 144.067 93.9016 144.7 96.5016 144.7ZM152.012 175.4C144.745 175.4 139.012 174.067 134.812 171.4C130.612 168.8 128.512 165.233 128.512 160.7C128.512 160.3 128.512 159.833 128.512 159.3C128.578 158.767 128.678 158.233 128.812 157.7L142.212 149L145.212 151.9L138.712 160C138.645 160.2 138.612 160.367 138.612 160.5C138.612 160.7 138.612 160.9 138.612 161.1C138.612 163.167 139.845 164.733 142.312 165.8C144.845 166.933 148.078 167.5 152.012 167.5C155.345 167.5 158.012 167.033 160.012 166.1C162.012 165.233 163.012 163.9 163.012 162.1C163.012 161.1 162.712 160.267 162.112 159.6C161.512 159 160.612 158.5 159.412 158.1C158.212 157.7 156.712 157.333 154.912 157C153.178 156.733 151.112 156.467 148.712 156.2C145.712 155.733 142.745 155.067 139.812 154.2C136.945 153.333 134.545 152.033 132.612 150.3C130.745 148.567 129.812 146.267 129.812 143.4C129.812 140.867 130.678 138.567 132.412 136.5C134.145 134.367 136.445 132.633 139.312 131.3L145.012 135.7C143.145 136.1 141.745 136.8 140.812 137.8C139.878 138.733 139.412 139.867 139.412 141.2C139.412 142.333 139.845 143.267 140.712 144C141.578 144.667 142.812 145.2 144.412 145.6C146.078 145.933 148.045 146.267 150.312 146.6C153.712 147 156.845 147.467 159.712 148C162.578 148.533 165.078 149.3 167.212 150.3C169.345 151.233 170.978 152.533 172.112 154.2C173.312 155.867 173.912 158.033 173.912 160.7C173.912 165.433 171.978 169.067 168.112 171.6C164.312 174.133 158.945 175.4 152.012 175.4ZM150.912 139.7C146.912 139.7 143.378 138.933 140.312 137.4C137.245 135.867 134.845 133.767 133.112 131.1C131.445 128.367 130.612 125.3 130.612 121.9C130.612 118.233 131.512 115.067 133.312 112.4C135.112 109.667 137.512 107.567 140.512 106.1C143.578 104.567 146.912 103.8 150.512 103.8C154.112 103.8 157.412 104.567 160.412 106.1C163.412 107.567 165.812 109.7 167.612 112.5C169.478 115.233 170.412 118.5 170.412 122.3C170.412 125.767 169.578 128.833 167.912 131.5C166.312 134.1 164.045 136.133 161.112 137.6C158.178 139 154.778 139.7 150.912 139.7ZM150.712 130.8C153.578 130.8 155.745 129.933 157.212 128.2C158.678 126.4 159.412 124.267 159.412 121.8C159.412 119.133 158.612 117 157.012 115.4C155.412 113.733 153.312 112.9 150.712 112.9C147.978 112.9 145.778 113.733 144.112 115.4C142.512 117 141.712 119.1 141.712 121.7C141.712 124.233 142.478 126.4 144.012 128.2C145.545 129.933 147.778 130.8 150.712 130.8ZM167.212 114.7L159.112 109.5L170.212 100.5L175.912 107.4L167.212 114.7ZM202.991 154.9C198.857 154.9 195.257 154.233 192.191 152.9C189.191 151.567 186.724 149.7 184.791 147.3C182.857 144.9 181.424 142.2 180.491 139.2C179.557 136.133 179.091 132.967 179.091 129.7C179.091 126.433 179.524 123.267 180.391 120.2C181.324 117.067 182.724 114.267 184.591 111.8C186.457 109.333 188.857 107.4 191.791 106C194.724 104.533 198.191 103.8 202.191 103.8C205.991 103.8 209.291 104.467 212.091 105.8C214.957 107.067 217.324 108.867 219.191 111.2C221.057 113.467 222.424 116.067 223.291 119C224.224 121.933 224.691 125.067 224.691 128.4C224.691 128.867 224.657 129.533 224.591 130.4C224.591 131.267 224.524 132.133 224.391 133H190.191C190.457 136.933 191.791 139.933 194.191 142C196.591 144.067 199.657 145.1 203.391 145.1C206.124 145.1 208.624 144.667 210.891 143.8C213.157 142.933 215.224 141.567 217.091 139.7L223.191 147.1C221.124 148.967 219.057 150.467 216.991 151.6C214.924 152.733 212.757 153.567 210.491 154.1C208.291 154.633 205.791 154.9 202.991 154.9ZM213.791 127.4C213.924 126.867 213.991 126.333 213.991 125.8C214.057 125.267 214.091 124.733 214.091 124.2C214.091 122.733 213.824 121.333 213.291 120C212.824 118.667 212.091 117.5 211.091 116.5C210.091 115.433 208.857 114.6 207.391 114C205.924 113.333 204.257 113 202.391 113C199.791 113 197.591 113.567 195.791 114.7C194.057 115.833 192.691 117.3 191.691 119.1C190.757 120.833 190.191 122.733 189.991 124.8H217.391L213.791 127.4ZM245.392 154.9C242.192 154.9 239.526 153.933 237.392 152C235.259 150 234.192 146.833 234.192 142.5V84.3H245.292V140.3C245.292 141.833 245.626 142.967 246.292 143.7C247.026 144.367 247.959 144.7 249.092 144.7C249.692 144.7 250.292 144.633 250.892 144.5C251.559 144.367 252.226 144.2 252.892 144V153.4C251.626 153.933 250.326 154.3 248.992 154.5C247.659 154.767 246.459 154.9 245.392 154.9ZM265.136 174.3L274.936 150.7L256.136 104.7H268.336L280.836 139.6L293.536 104.7H305.536L277.136 174.3H265.136ZM312.263 154V141.4H324.463V154H312.263ZM346.787 154.9C343.587 154.9 340.92 153.933 338.787 152C336.653 150 335.587 146.833 335.587 142.5V84.3H346.687V140.3C346.687 141.833 347.02 142.967 347.687 143.7C348.42 144.367 349.353 144.7 350.487 144.7C351.087 144.7 351.687 144.633 352.287 144.5C352.953 144.367 353.62 144.2 354.287 144V153.4C353.02 153.933 351.72 154.3 350.387 154.5C349.053 154.767 347.853 154.9 346.787 154.9ZM362.13 154V104.7H373.23V154H362.13ZM361.63 96.6V84.3H373.73V96.6H361.63ZM385.156 154V104.7H396.256V115.6L394.256 116.1C395.123 113.233 396.39 110.9 398.056 109.1C399.723 107.3 401.656 105.967 403.856 105.1C406.123 104.233 408.49 103.8 410.956 103.8C416.49 103.8 420.79 105.4 423.856 108.6C426.99 111.733 428.556 116.233 428.556 122.1V154H417.456V126.2C417.456 121.8 416.656 118.567 415.056 116.5C413.456 114.433 410.99 113.4 407.656 113.4C405.19 113.4 403.09 114 401.356 115.2C399.69 116.333 398.423 118.133 397.556 120.6C396.69 123.067 396.256 126.2 396.256 130V154H385.156ZM473.416 154L458.516 130.5L450.116 139.8V125.7L470.216 104.7H484.416L466.616 123.1L486.616 154H473.416ZM440.016 154V84.3H451.116V154H440.016Z" fill="url(#paint0_linear_9_4)"/>
<defs>
<linearGradient id="paint0_linear_9_4" x1="15" y1="119" x2="489" y2="119" gradientUnits="userSpaceOnUse">
<stop stop-color="#6C1EEF"/>
<stop offset="1" stop-color="#3A0CA3"/>
</linearGradient>
</defs>
</svg>
