<svg width="488" height="106" viewBox="0 0 488 106" fill="none" xmlns="http://www.w3.org/2000/svg">
<g clip-path="url(#clip0_9_4)">
<path d="M35.1 80.9C30.9667 80.9 27.3667 80.2333 24.3 78.9C21.3 77.5667 18.8333 75.7 16.9 73.3C14.9667 70.9 13.5333 68.2 12.6 65.2C11.6667 62.1333 11.2 58.9667 11.2 55.7C11.2 52.4333 11.6333 49.2667 12.5 46.2C13.4333 43.0667 14.8333 40.2667 16.7 37.8C18.5667 35.3333 20.9667 33.4 23.9 32C26.8333 30.5333 30.3 29.8 34.3 29.8C38.1 29.8 41.4 30.4667 44.2 31.8C47.0667 33.0667 49.4333 34.8667 51.3 37.2C53.1667 39.4667 54.5333 42.0667 55.4 45C56.3333 47.9333 56.8 51.0667 56.8 54.4C56.8 54.8667 56.7667 55.5333 56.7 56.4C56.7 57.2667 56.6333 58.1333 56.5 59H22.3C22.5667 62.9333 23.9 65.9333 26.3 68C28.7 70.0667 31.7667 71.1 35.5 71.1C38.2333 71.1 40.7333 70.6667 43 69.8C45.2667 68.9333 47.3333 67.5667 49.2 65.7L55.3 73.1C53.2333 74.9667 51.1667 76.4667 49.1 77.6C47.0333 78.7333 44.8667 79.5667 42.6 80.1C40.4 80.6333 37.9 80.9 35.1 80.9ZM45.9 53.4C46.0333 52.8667 46.1 52.3333 46.1 51.8C46.1667 51.2667 46.2 50.7333 46.2 50.2C46.2 48.7333 45.9333 47.3333 45.4 46C44.9333 44.6667 44.2 43.5 43.2 42.5C42.2 41.4333 40.9667 40.6 39.5 40C38.0333 39.3333 36.3667 39 34.5 39C31.9 39 29.7 39.5667 27.9 40.7C26.1667 41.8333 24.8 43.3 23.8 45.1C22.8667 46.8333 22.3 48.7333 22.1 50.8H49.5L45.9 53.4ZM85.8016 80.9C81.4016 80.9 77.5682 79.8 74.3016 77.6C71.1016 75.3333 68.6349 72.2667 66.9016 68.4C65.1682 64.5333 64.3016 60.1667 64.3016 55.3C64.3016 49.9667 65.2349 45.4 67.1016 41.6C69.0349 37.8 71.6349 34.9 74.9016 32.9C78.1682 30.8333 81.8016 29.8 85.8016 29.8C88.6016 29.8 91.1682 30.3667 93.5016 31.5C95.9016 32.6333 97.9016 34.3 99.5016 36.5C101.168 38.6333 102.335 41.2667 103.002 44.4L100.402 44.5V10.3H111.502V80H100.402V66.3L103.402 65.6C102.535 69.2 101.202 72.1333 99.4016 74.4C97.6682 76.6 95.6349 78.2333 93.3016 79.3C90.9682 80.3667 88.4682 80.9 85.8016 80.9ZM88.5016 70.7C91.1016 70.7 93.3682 70.0667 95.3016 68.8C97.2349 67.5333 98.7349 65.7333 99.8016 63.4C100.868 61.0667 101.402 58.3667 101.402 55.3C101.402 52.2333 100.868 49.5667 99.8016 47.3C98.7349 44.9667 97.2349 43.1667 95.3016 41.9C93.3682 40.5667 91.1016 39.9 88.5016 39.9C85.9016 39.9 83.6016 40.5333 81.6016 41.8C79.6682 43.0667 78.1349 44.8667 77.0016 47.2C75.9349 49.5333 75.4016 52.2333 75.4016 55.3C75.4016 58.3667 75.9349 61.0667 77.0016 63.4C78.1349 65.7333 79.6682 67.5333 81.6016 68.8C83.6016 70.0667 85.9016 70.7 88.5016 70.7ZM144.012 101.4C136.745 101.4 131.012 100.067 126.812 97.4C122.612 94.8 120.512 91.2333 120.512 86.7C120.512 86.3 120.512 85.8333 120.512 85.3C120.578 84.7667 120.678 84.2333 120.812 83.7L134.212 75L137.212 77.9L130.712 86C130.645 86.2 130.612 86.3667 130.612 86.5C130.612 86.7 130.612 86.9 130.612 87.1C130.612 89.1667 131.845 90.7333 134.312 91.8C136.845 92.9333 140.078 93.5 144.012 93.5C147.345 93.5 150.012 93.0333 152.012 92.1C154.012 91.2333 155.012 89.9 155.012 88.1C155.012 87.1 154.712 86.2667 154.112 85.6C153.512 85 152.612 84.5 151.412 84.1C150.212 83.7 148.712 83.3333 146.912 83C145.178 82.7333 143.112 82.4667 140.712 82.2C137.712 81.7333 134.745 81.0667 131.812 80.2C128.945 79.3333 126.545 78.0333 124.612 76.3C122.745 74.5667 121.812 72.2667 121.812 69.4C121.812 66.8667 122.678 64.5667 124.412 62.5C126.145 60.3667 128.445 58.6333 131.312 57.3L137.012 61.7C135.145 62.1 133.745 62.8 132.812 63.8C131.878 64.7333 131.412 65.8667 131.412 67.2C131.412 68.3333 131.845 69.2667 132.712 70C133.578 70.6667 134.812 71.2 136.412 71.6C138.078 71.9333 140.045 72.2667 142.312 72.6C145.712 73 148.845 73.4667 151.712 74C154.578 74.5333 157.078 75.3 159.212 76.3C161.345 77.2333 162.978 78.5333 164.112 80.2C165.312 81.8667 165.912 84.0333 165.912 86.7C165.912 91.4333 163.978 95.0667 160.112 97.6C156.312 100.133 150.945 101.4 144.012 101.4ZM142.912 65.7C138.912 65.7 135.378 64.9333 132.312 63.4C129.245 61.8667 126.845 59.7667 125.112 57.1C123.445 54.3667 122.612 51.3 122.612 47.9C122.612 44.2333 123.512 41.0667 125.312 38.4C127.112 35.6667 129.512 33.5667 132.512 32.1C135.578 30.5667 138.912 29.8 142.512 29.8C146.112 29.8 149.412 30.5667 152.412 32.1C155.412 33.5667 157.812 35.7 159.612 38.5C161.478 41.2333 162.412 44.5 162.412 48.3C162.412 51.7667 161.578 54.8333 159.912 57.5C158.312 60.1 156.045 62.1333 153.112 63.6C150.178 65 146.778 65.7 142.912 65.7ZM142.712 56.8C145.578 56.8 147.745 55.9333 149.212 54.2C150.678 52.4 151.412 50.2667 151.412 47.8C151.412 45.1333 150.612 43 149.012 41.4C147.412 39.7333 145.312 38.9 142.712 38.9C139.978 38.9 137.778 39.7333 136.112 41.4C134.512 43 133.712 45.1 133.712 47.7C133.712 50.2333 134.478 52.4 136.012 54.2C137.545 55.9333 139.778 56.8 142.712 56.8ZM159.212 40.7L151.112 35.5L162.212 26.5L167.912 33.4L159.212 40.7ZM194.991 80.9C190.857 80.9 187.257 80.2333 184.191 78.9C181.191 77.5667 178.724 75.7 176.791 73.3C174.857 70.9 173.424 68.2 172.491 65.2C171.557 62.1333 171.091 58.9667 171.091 55.7C171.091 52.4333 171.524 49.2667 172.391 46.2C173.324 43.0667 174.724 40.2667 176.591 37.8C178.457 35.3333 180.857 33.4 183.791 32C186.724 30.5333 190.191 29.8 194.191 29.8C197.991 29.8 201.291 30.4667 204.091 31.8C206.957 33.0667 209.324 34.8667 211.191 37.2C213.057 39.4667 214.424 42.0667 215.291 45C216.224 47.9333 216.691 51.0667 216.691 54.4C216.691 54.8667 216.657 55.5333 216.591 56.4C216.591 57.2667 216.524 58.1333 216.391 59H182.191C182.457 62.9333 183.791 65.9333 186.191 68C188.591 70.0667 191.657 71.1 195.391 71.1C198.124 71.1 200.624 70.6667 202.891 69.8C205.157 68.9333 207.224 67.5667 209.091 65.7L215.191 73.1C213.124 74.9667 211.057 76.4667 208.991 77.6C206.924 78.7333 204.757 79.5667 202.491 80.1C200.291 80.6333 197.791 80.9 194.991 80.9ZM205.791 53.4C205.924 52.8667 205.991 52.3333 205.991 51.8C206.057 51.2667 206.091 50.7333 206.091 50.2C206.091 48.7333 205.824 47.3333 205.291 46C204.824 44.6667 204.091 43.5 203.091 42.5C202.091 41.4333 200.857 40.6 199.391 40C197.924 39.3333 196.257 39 194.391 39C191.791 39 189.591 39.5667 187.791 40.7C186.057 41.8333 184.691 43.3 183.691 45.1C182.757 46.8333 182.191 48.7333 181.991 50.8H209.391L205.791 53.4ZM237.392 80.9C234.192 80.9 231.526 79.9333 229.392 78C227.259 76 226.192 72.8333 226.192 68.5V10.3H237.292V66.3C237.292 67.8333 237.626 68.9667 238.292 69.7C239.026 70.3667 239.959 70.7 241.092 70.7C241.692 70.7 242.292 70.6333 242.892 70.5C243.559 70.3667 244.226 70.2 244.892 70V79.4C243.626 79.9333 242.326 80.3 240.992 80.5C239.659 80.7667 238.459 80.9 237.392 80.9ZM257.136 100.3L266.936 76.7L248.136 30.7H260.336L272.836 65.6L285.536 30.7H297.536L269.136 100.3H257.136ZM304.263 80V67.4H316.463V80H304.263ZM338.787 80.9C335.587 80.9 332.92 79.9333 330.787 78C328.653 76 327.587 72.8333 327.587 68.5V10.3H338.687V66.3C338.687 67.8333 339.02 68.9667 339.687 69.7C340.42 70.3667 341.353 70.7 342.487 70.7C343.087 70.7 343.687 70.6333 344.287 70.5C344.953 70.3667 345.62 70.2 346.287 70V79.4C345.02 79.9333 343.72 80.3 342.387 80.5C341.053 80.7667 339.853 80.9 338.787 80.9ZM354.13 80V30.7H365.23V80H354.13ZM353.63 22.6V10.3H365.73V22.6H353.63ZM377.156 80V30.7H388.256V41.6L386.256 42.1C387.123 39.2333 388.39 36.9 390.056 35.1C391.723 33.3 393.656 31.9667 395.856 31.1C398.123 30.2333 400.49 29.8 402.956 29.8C408.49 29.8 412.79 31.4 415.856 34.6C418.99 37.7333 420.556 42.2333 420.556 48.1V80H409.456V52.2C409.456 47.8 408.656 44.5667 407.056 42.5C405.456 40.4333 402.99 39.4 399.656 39.4C397.19 39.4 395.09 40 393.356 41.2C391.69 42.3333 390.423 44.1333 389.556 46.6C388.69 49.0667 388.256 52.2 388.256 56V80H377.156ZM465.416 80L450.516 56.5L442.116 65.8V51.7L462.216 30.7H476.416L458.616 49.1L478.616 80H465.416ZM432.016 80V10.3H443.116V80H432.016Z" fill="url(#paint0_linear_9_4)"/>
</g>
<defs>
<linearGradient id="paint0_linear_9_4" x1="7" y1="38.5" x2="481" y2="38.5" gradientUnits="userSpaceOnUse">
<stop stop-color="#6C1EEF"/>
<stop offset="1" stop-color="#3A0CA3"/>
</linearGradient>
<clipPath id="clip0_9_4">
<rect width="488" height="106" fill="white"/>
</clipPath>
</defs>
</svg>
