<svg width="436" height="436" viewBox="0 0 436 436" fill="none" xmlns="http://www.w3.org/2000/svg">
<g filter="url(#filter0_d_19_25)">
<circle cx="218" cy="214" r="214" fill="url(#paint0_linear_19_25)"/>
</g>
<path d="M162.2 285.8C153.933 285.8 146.733 284.467 140.6 281.8C134.6 279.133 129.667 275.4 125.8 270.6C121.933 265.8 119.067 260.4 117.2 254.4C115.333 248.267 114.4 241.933 114.4 235.4C114.4 228.867 115.267 222.533 117 216.4C118.867 210.133 121.667 204.533 125.4 199.6C129.133 194.667 133.933 190.8 139.8 188C145.667 185.067 152.6 183.6 160.6 183.6C168.2 183.6 174.8 184.933 180.4 187.6C186.133 190.133 190.867 193.733 194.6 198.4C198.333 202.933 201.067 208.133 202.8 214C204.667 219.867 205.6 226.133 205.6 232.8C205.6 233.733 205.533 235.067 205.4 236.8C205.4 238.533 205.267 240.267 205 242H136.6C137.133 249.867 139.8 255.867 144.6 260C149.4 264.133 155.533 266.2 163 266.2C168.467 266.2 173.467 265.333 178 263.6C182.533 261.867 186.667 259.133 190.4 255.4L202.6 270.2C198.467 273.933 194.333 276.933 190.2 279.2C186.067 281.467 181.733 283.133 177.2 284.2C172.8 285.267 167.8 285.8 162.2 285.8ZM183.8 230.8C184.067 229.733 184.2 228.667 184.2 227.6C184.333 226.533 184.4 225.467 184.4 224.4C184.4 221.467 183.867 218.667 182.8 216C181.867 213.333 180.4 211 178.4 209C176.4 206.867 173.933 205.2 171 204C168.067 202.667 164.733 202 161 202C155.8 202 151.4 203.133 147.8 205.4C144.333 207.667 141.6 210.6 139.6 214.2C137.733 217.667 136.6 221.467 136.2 225.6H191L183.8 230.8ZM224.003 284V258.8H248.403V284H224.003ZM293.05 285.8C286.65 285.8 281.317 283.867 277.05 280C272.783 276 270.65 269.667 270.65 261V144.6H292.85V256.6C292.85 259.667 293.517 261.933 294.85 263.4C296.317 264.733 298.183 265.4 300.45 265.4C301.65 265.4 302.85 265.267 304.05 265C305.383 264.733 306.717 264.4 308.05 264V282.8C305.517 283.867 302.917 284.6 300.25 285C297.583 285.533 295.183 285.8 293.05 285.8Z" fill="white"/>
<defs>
<filter id="filter0_d_19_25" x="0" y="0" width="436" height="436" filterUnits="userSpaceOnUse" color-interpolation-filters="sRGB">
<feFlood flood-opacity="0" result="BackgroundImageFix"/>
<feColorMatrix in="SourceAlpha" type="matrix" values="0 0 0 0 0 0 0 0 0 0 0 0 0 0 0 0 0 0 127 0" result="hardAlpha"/>
<feOffset dy="4"/>
<feGaussianBlur stdDeviation="2"/>
<feComposite in2="hardAlpha" operator="out"/>
<feColorMatrix type="matrix" values="0 0 0 0 0 0 0 0 0 0 0 0 0 0 0 0 0 0 0.25 0"/>
<feBlend mode="normal" in2="BackgroundImageFix" result="effect1_dropShadow_19_25"/>
<feBlend mode="normal" in="SourceGraphic" in2="effect1_dropShadow_19_25" result="shape"/>
</filter>
<linearGradient id="paint0_linear_19_25" x1="4" y1="0" x2="440.364" y2="419.295" gradientUnits="userSpaceOnUse">
<stop stop-color="#6C1EEF"/>
<stop offset="1" stop-color="#3A0CA3"/>
</linearGradient>
</defs>
</svg>
